<svg xmlns="http://www.w3.org/2000/svg" viewBox="0 0 1287.17 256.96"><g id="Layer_2" data-name="Layer 2"><g id="Layer_1-2" data-name="Layer 1"><path d="M243.53,147.09c5.57-1.16,12.87-2.63,20.14-4.21,5.48-1.19,11-2.42,16.39-3.83a44,44,0,0,0,8-2.83c15.16-7.21,30.18-14.71,45.43-21.73a110.62,110.62,0,0,1,17-5.75c4.35-1.2,7.85,1.25,9.05,5.69,1.06,3.87.26,7.52-1.35,11.12-2.23,5-4.29,10-6.43,15.07-.19.45-.26,1-.59,1.35a30.9,30.9,0,0,1-2.5,1.89c-.27-.89-.92-1.87-.74-2.67.87-3.87,2-7.7,3-11.54.74-2.72,1.72-5.38,2.21-8.14.71-3.94-1.16-5.77-5.1-4.78a55.18,55.18,0,0,0-9.34,3.46c-8.47,3.84-16.79,8-25.32,11.72-11.44,5-22.92,9.84-34.6,14.18-6.34,2.35-13.11,3.57-19.71,5.17-3.07.74-6.24,1.05-9.32,1.77-8,1.86-15.69.88-23.64-.91-6.77-1.52-13.17-3.15-18.73-7.48-2-1.58-4.35-.92-6.58.26-6.16,3.25-12.31,6.52-18.61,9.49-7.72,3.65-16.07,4.16-24.41,3.53-2.48-.18-4.9-1.86-7.24-3-1.77-.9-3.31-2.25-5.07-3.17-2.52-1.32-4.59-1-6.45,1.54-3.6,5-8.15,9.36-11.12,14.65a35.53,35.53,0,0,1-17,15.69c-8.4,3.85-16.06,9.27-24.4,13.27-4.56,2.19-9.88,2.73-14.78,4.26-13.28,4.16-27.08,2.22-40.59,3.64a6.12,6.12,0,0,1-5.68-2.1c-1.4-1.47-4-2.15-6.19-2.46-5.41-.78-10.36-2.36-14.41-6.19-4.34-4.09-6-11.13-3.69-16.5a7.3,7.3,0,0,1,2.67-2.77c4-2.7,8-5.28,12.05-7.88,8.78-5.66,17.45-11.48,26.39-16.88,8.23-5,16.71-9.52,25.14-14.16,5.85-3.23,6.71-4.69,3.84-10.63C63.81,110,58.92,94,54.9,77.74c-1.56-6.35-1.41-13.12-2-19.7-.29-3.43-.37-6.88-.62-10.31-.66-8.93-1.76-17.87.79-26.69C57.17,6.93,67.43-1.86,83.69.34,88,.92,92.2,2,96.49,2.41c8.23.71,14.25,6,21,9.72,1.79,1,3,3,4.43,4.66,7.72,8.83,16.77,16.45,23,26.71,7.32,12.11,10.43,25.34,12.23,39.07.18,1.31.11,2.67.4,4,.88,3.86,2.28,4.53,6,3.49,4.63-1.29,9.3-2.47,14-3.51,2.07-.46,4.56-.94,5.77,1.52s-.89,3.83-2.49,5.31c-7.92,7.32-15.93,14.55-23.6,22.12-2,2-3.25,5-4.35,7.72-1.48,3.65-2.37,7.53-3.71,11.23-2.56,7.09-.07,13.58,7.21,15.8a33.2,33.2,0,0,0,13.71,1c9-1.18,16.88-5.85,24.64-10.42,2.32-1.35,2.8-3.32,1.39-5.48-8.24-12.57-4.67-24.81,1.23-36.79,4.19-8.54,10.3-15.61,17.43-22C220.91,71,226,64.34,231.54,58.18c.22-.24.32-.58.54-.84,2.18-2.62,12.42-4.12,16.06-2.36,3.94,1.91,6,6.76,5.43,11.79-.54,4.65-1.23,9.14-3.73,13.27a21.24,21.24,0,0,0-2.26,6.57c-3,13.69-11.36,24.2-20.25,34.35a152,152,0,0,1-12.07,11.87c-4.28,3.92-4.12,6.13,1.19,8.83C224.37,145.68,233,146.28,243.53,147.09ZM80.68,6.77c-.93,0-1.44.05-1.93,0-11.08-1.33-18,7-19.26,15.87-.74,5.06-1.24,10.16-1.61,15.26-1.08,15,1.18,29.79,4.34,44.3,2.29,10.47,6.42,20.55,10,30.72a85,85,0,0,0,5.2,11.22c1.53,2.94,3.88,3.83,7.06,2.19,7.53-3.87,15.45-7.1,22.59-11.56,12.2-7.62,25.46-12.83,38.57-18.41,4.48-1.91,5.44-2.83,4.81-7.7s-1.55-9.82-2-14.77c-.9-10.58-6.15-19.54-11.05-28.45-7.3-13.3-19.8-21.89-31.07-31.51a9.78,9.78,0,0,0-2.55-1.55C96.25,9.24,88.66,6.27,80.68,6.77ZM39.22,199.07c4.09-.61,8.19-1.12,12.26-1.86,6.19-1.11,12.32-2.77,18.56-3.48,9.57-1.08,17.86-5.47,25.63-10.33,4.3-2.68,8.54-5.55,13-8.06,8.32-4.7,15.86-10.21,20.3-19.13a66.43,66.43,0,0,1,6.89-10.89,17.31,17.31,0,0,0,3.88-9.45c.44-5.1,1.47-9.94,4.55-14.48,2.46-3.6,3.79-8.11,5-12.39,1.32-4.7-.46-6.14-5-4.71a29,29,0,0,0-4.23,1.49q-18.33,9-36.61,18.13c-3.7,1.86-7.15,4.22-10.88,6-7.89,3.77-8,3.7-5.57,11.93a8.76,8.76,0,0,0,3,4.2c2.61,1.93,5.59,3.36,8.31,5.17.65.43.85,1.54,1.25,2.34-1,.3-1.92.64-2.9.86-.23.05-.53-.35-.83-.51-5.92-3.16-11.24-7.05-15.31-12.46-1.42-1.89-3.16-3.15-5.54-2.17a100.08,100.08,0,0,0-11.78,5.34c-7,4-13.72,8.68-20.8,12.62-11.39,6.33-23,12.32-34.49,18.42-2.12,1.12-3.49,2.64-3,5.12C6,187,9.07,192.11,15.31,194.08,23,196.52,30.83,199.07,39.22,199.07Zm159.79-80a58.05,58.05,0,0,0,2.38,8.64c1.9,4.56,4.92,5.1,8.54,1.79A161.56,161.56,0,0,0,233.3,103.3c6.28-9,9-19.49,12.79-29.52,1.09-2.87.9-6.49.42-9.63-.75-4.87-4-5.57-7.74-2.25-4,3.5-8.11,6.76-12.13,10.18a27.08,27.08,0,0,0-4.29,4.13c-5.74,7.68-11.71,15.24-16.88,23.3A38.14,38.14,0,0,0,199,119.06Z"/><path d="M668.87,166.48c9.33,1.07,18-1.18,26.86-2.92,12.33-2.44,23.88-6.83,35.62-11.07a185.59,185.59,0,0,0,22-9.18c9.23-4.77,18.87-8.93,27-15.64,4.07-3.34,5.66-3,8.2,1.48,3.17,5.66,8.49,8.88,13.81,11.77,8.18,4.45,16.84,7.91,26.26,9.07a31.81,31.81,0,0,1,5.22,1.64c14.08,4.35,28.67,5.63,43.22,7.11a11.29,11.29,0,0,1,2.49.18c11.19,3.82,23,2.79,34.5,4.47,4.68.69,9.59-.16,14.39-.42,6.26-.35,12.51-1.15,18.76-1.16a119,119,0,0,0,34.3-5.5,107.88,107.88,0,0,1,19.06-3.36,136.47,136.47,0,0,1,20.39-1.06c7.74.31,15.45,1.65,23.17,2.5,4.46.49,8.93.88,13.39,1.33,8.26.84,16.56,1.4,24.76,2.61,11,1.62,21.93,3.46,32.78,5.75a162.86,162.86,0,0,1,24,6.62,35.45,35.45,0,0,1,12.16,8.36,227.63,227.63,0,0,1,19.72,22.4c4.52,6,8.82,12.45,10.57,20.09.86,3.7,1.89,7.38,3.06,11,.36,1.12,1.36,2.76,2.17,2.82,1,.07,2.35-1.09,3-2.08a36.47,36.47,0,0,0,3.37-6.09A268.34,268.34,0,0,1,1218,182.56a3.52,3.52,0,0,0,.55-.83c2.61-9,10-14.67,15.1-21.95,6-8.55,11.33-17.53,17.06-26.25,3-4.56,6.15-9,9.35-13.45,4.72-6.52,9.53-13,14.33-19.43,2.95-4,5.95-7.92,8.95-11.87a4.78,4.78,0,0,1,3.81-2.47,5.76,5.76,0,0,1-.36,1.8c-1.26,2.13-2.8,4.11-3.91,6.32-4.55,9.1-11.09,16.87-16.69,25.27-8,12-15.39,24.37-23.11,36.55-2.57,4.05-5,8.29-8.07,11.92-8.72,10.25-12.78,23.19-20.3,34.15-4.75,6.94-8.37,14.7-12.1,22.28-4.46,9.08-8.34,18.44-12.85,27.48-1,1.94-3.4,3.63-5.53,4.42-3.31,1.21-5,0-5.53-3.55-1.1-6.69-1.69-13.46-2.89-20.13a69.86,69.86,0,0,0-18.08-35.95c-2-2.17-3.63-4.71-5.62-6.91-1.76-2-3.5-4.18-5.73-5.43-9.27-5.19-18.61-10.32-28.18-14.93-3.33-1.6-7.36-2-11.13-2.38-14.88-1.49-29.81-2.53-44.67-4.19-18.68-2.08-37.41-3.36-56.17-2.62-10.37.41-20.83.82-31,4.33-5.38,1.86-11.43,2.23-17.21,2.39-20,.54-39.94.73-59.92.93a66.78,66.78,0,0,1-8.89-.9,53.39,53.39,0,0,0-5.41-.87C869,166,854.52,163,839.93,160.64c-13.57-2.15-26.42-6.66-39-11.95-4.66-2-8.75-5.36-12.94-8.33-6.1-4.34-7.13-4.74-13.32-.6-9.47,6.35-19.85,10.63-30.26,15.11-9,3.88-18.42,6.4-27.62,9.61-7.63,2.67-15.17,5.62-22.88,8a44.57,44.57,0,0,1-12.15,2.1c-8.82.17-17.65-.26-26.47-.4a17.43,17.43,0,0,1-11.05-3.93,27,27,0,0,0-5-3.24c-7-3.42-11.36-9.05-13.81-16.27-2.19-6.48-1.16-12.79,1.65-18.77a143,143,0,0,1,7.2-13.06,155.81,155.81,0,0,1,28-34.76c6.47-5.93,12.07-12.8,18.47-18.81A112.72,112.72,0,0,1,696.22,53c8.59-5.59,17.54-10.64,26.46-15.71,6.94-4,14.39-5.79,22.43-4.06,3.86.83,5.56,3.81,3.63,7.53a66.18,66.18,0,0,1-7.12,10.76c-3.74,4.64-7.77,9.07-11.94,13.34a65.68,65.68,0,0,1-8,6.63c-6.76,5-13.1,10.74-21.19,13.77-2.92,1.09-5.83,1.74-8.5-.42a3.07,3.07,0,0,1-1-2.49c.16-.7,1.4-1.75,2-1.67,5.31.73,9.25-2.44,13.42-4.66,8.46-4.51,15.43-10.9,21.64-18.15,2.69-3.13,5.65-6.05,8.38-9.15a15.85,15.85,0,0,0,2.8-4.08c.63-1.43,1.44-4,.87-4.49a9,9,0,0,0-5.37-1.65c-1.52,0-3.14.94-4.55,1.76-6.63,3.81-13.44,7.37-19.73,11.68a209.3,209.3,0,0,0-20.86,16c-9.92,8.8-19.79,17.74-28.78,27.45a150.56,150.56,0,0,0-26.31,39c-5.19,11.18-.05,23.45,11.37,28.22C653.4,165.79,660.92,167.7,668.87,166.48Z"/><path d="M453.41,166.94c5.59-.93,13.79-2.2,22-3.69,5.72-1.05,11.37-2.44,17.08-3.6a11.16,11.16,0,0,1,2.8.17,10.29,10.29,0,0,1-2.37,2.09,85.46,85.46,0,0,1-29.91,7c-8,.34-15.91,1.81-23.88,1.92-12,.17-22.7-4-30.66-13-4.05-4.6-2.87-10.95-.34-16a248.55,248.55,0,0,1,12.77-21.91c3.53-5.59,7.52-10.89,11.39-16.26a73.49,73.49,0,0,1,5.57-7C444.92,89,451.7,81,459.38,73.9,470.31,63.84,480,52.3,493.15,44.75c4.73-2.71,8.86-6.44,13.28-9.69,3.72-2.72,7.11-6.31,11.27-7.89s9.11-1.69,13.64-1.35c2.88.22,4.45,3.18,4.49,6.38.12,8.95-2.92,17-7.85,24.2-6.77,9.83-14.18,19.21-21.24,28.84-8.41,11.48-19.7,19-32.77,24.22-3.24,1.29-6.44,2.72-9.75,3.85-1.11.38-2.48,0-3.74,0,.67-1.19,1.08-2.71,2.07-3.49a21.46,21.46,0,0,1,5.6-3.15A83,83,0,0,0,495.29,89.5c8.71-8,13.6-18.69,21.08-27.53,4-4.76,7.23-10.29,10.3-15.76a31,31,0,0,0,3-9.42c.58-3.06-.8-4.49-3.93-4a23.66,23.66,0,0,0-7.49,2.47,104.43,104.43,0,0,0-20.56,13.89C487,58.57,476,67.79,465.82,77.78c-10.66,10.45-20.2,22-29.68,33.55a203.28,203.28,0,0,0-18,26.21,35.91,35.91,0,0,0-3.12,6.75c-2.74,8.19,0,13.52,7.93,17C431.86,165.21,441.18,166.37,453.41,166.94Z"/></g></g></svg>